<svg width="40" height="40" viewBox="0 0 40 40" fill="none" xmlns="http://www.w3.org/2000/svg">
<path d="M6.62815 4.44444C7.8569 4.44444 8.85294 3.44952 8.85294 2.22222C8.85294 0.994922 7.8569 0 6.62815 0C5.80464 0 5.0857 0.446889 4.70103 1.11111H4.40335C2.56028 1.11111 1.06616 2.6035 1.06616 4.44444V14.4444H3.29096V4.44444C3.29096 3.8308 3.789 3.33333 4.40335 3.33333H4.70103C5.0857 3.99756 5.80464 4.44444 6.62815 4.44444Z" fill="#333333"/>
<path fill-rule="evenodd" clip-rule="evenodd" d="M4.58149 14.4444H3.29088H1.06609C0.451734 14.4444 -0.0515256 14.943 0.00422772 15.5541C0.262849 18.3888 1.50624 21.0578 3.53768 23.0869C5.02734 24.5748 6.86146 25.6394 8.85287 26.2033V28.8889C8.85287 30.3404 9.78172 31.5752 11.0781 32.0327C11.1255 36.441 14.718 40 19.1425 40C23.5967 40 27.2074 36.3934 27.2074 31.9444V27.5C27.2074 25.1988 29.075 23.3333 31.3789 23.3333C33.6828 23.3333 35.5504 25.1988 35.5504 27.5V30.1897C34.2542 30.6472 33.3256 31.882 33.3256 33.3333C33.3256 35.1743 34.8197 36.6667 36.6628 36.6667C38.5059 36.6667 40 35.1743 40 33.3333C40 31.882 39.0714 30.6472 37.7752 30.1897V27.5C37.7752 23.9716 34.9114 21.1111 31.3789 21.1111C27.8464 21.1111 24.9826 23.9716 24.9826 27.5V31.9444C24.9826 35.1661 22.3679 37.7778 19.1425 37.7778C15.9465 37.7778 13.3502 35.2134 13.3031 32.0323C14.599 31.5746 15.5273 30.34 15.5273 28.8889V26.2033C17.5187 25.6394 19.3529 24.5748 20.8425 23.0869C22.874 21.0578 24.1173 18.3888 24.3759 15.5541C24.4318 14.943 23.9284 14.4444 23.314 14.4444V4.44444C23.314 2.6035 21.82 1.11111 19.9768 1.11111H19.6792C19.2945 0.446889 18.5756 0 17.7521 0C16.5233 0 15.5273 0.994922 15.5273 2.22222C15.5273 3.44952 16.5233 4.44444 17.7521 4.44444C18.5756 4.44444 19.2945 3.99756 19.6792 3.33333H19.9768C20.5912 3.33333 21.0892 3.8308 21.0892 4.44444V14.4444H19.7987C19.1844 14.4444 18.696 14.9454 18.5914 15.5502C18.3644 16.8607 17.7378 18.0797 16.7836 19.0327C15.5654 20.2496 13.9131 20.9332 12.1901 20.9332C10.4672 20.9332 8.81483 20.2496 7.59653 19.0327C6.64243 18.0797 6.0157 16.8607 5.78877 15.5502C5.68409 14.9454 5.19575 14.4444 4.58149 14.4444ZM20.6226 16.6667H21.9513C21.5356 18.4884 20.6132 20.1732 19.2694 21.5156C17.3919 23.3909 14.8454 24.4444 12.1901 24.4444C9.53488 24.4444 6.98838 23.3909 5.11088 21.5156C3.76696 20.1732 2.84456 18.4884 2.4288 16.6667H3.75757C4.1477 18.1434 4.92344 19.5053 6.02338 20.604C7.65893 22.2377 9.87717 23.1554 12.1901 23.1554C14.5031 23.1554 16.7213 22.2377 18.3569 20.604C19.4568 19.5053 20.2325 18.1434 20.6226 16.6667ZM36.6628 32.2222C37.2772 32.2222 37.7752 32.7197 37.7752 33.3333C37.7752 33.947 37.2772 34.4444 36.6628 34.4444C36.0484 34.4444 35.5504 33.947 35.5504 33.3333C35.5504 32.7197 36.0484 32.2222 36.6628 32.2222ZM13.3025 26.6667V28.8889C13.3025 29.5026 12.8044 30 12.1901 30C11.5757 30 11.0777 29.5026 11.0777 28.8889V26.6667H13.3025Z" fill="#333333"/>
</svg>
