<svg width="40" height="40" viewBox="0 0 40 40" fill="none" xmlns="http://www.w3.org/2000/svg">
<path fill-rule="evenodd" clip-rule="evenodd" d="M6.67853 5.84831C5.14171 8.02661 4.21053 11.0028 4.21053 14.1099C4.21053 15.9128 4.4889 17.6378 4.97897 19.2803H14.1213L17.6876 12.2184L19.9161 20.9058L22.6431 17.0006H29.4737V19.3455H23.6727L19.0313 25.9923L17.0493 18.2654L15.3524 21.6252H0V19.2803H2.7746C2.34772 17.6404 2.10526 15.9139 2.10526 14.1099C2.10526 10.5042 3.18024 7.01174 5.02318 4.39951C6.87116 1.78005 9.53274 0 12.6644 0C16.3524 0 19.1569 2.30196 21.0526 5.55016C22.9482 2.30211 25.7527 0 29.4408 0C32.5728 0 35.2344 1.78037 37.0823 4.39986C38.9252 7.01232 40 10.5048 40 14.1099C40 21.8276 35.2172 28.2724 30.6922 32.6716C28.4038 34.8963 26.1204 36.6573 24.4114 37.8614C23.5558 38.4643 22.8414 38.9296 22.3386 39.2453C22.0872 39.4032 21.8884 39.524 21.7512 39.6059C21.6826 39.647 21.6294 39.6783 21.5925 39.6997L21.5499 39.7245L21.538 39.7313L21.5345 39.7334L21.5334 39.734C21.5334 39.734 21.5326 39.7344 21.0526 38.691C20.596 39.7473 20.5957 39.7472 20.5957 39.7472L20.5894 39.7438L20.5747 39.7358L20.5216 39.7068C20.4759 39.6816 20.4097 39.6446 20.3246 39.5964C20.1545 39.4998 19.9087 39.3574 19.5996 39.1706C18.9815 38.7971 18.1086 38.2453 17.0798 37.5265C15.0259 36.0914 12.3317 33.978 9.79811 31.2741C8.44663 29.8319 7.134 28.2144 5.98694 26.4342C5.64796 25.9082 5.75604 25.1756 6.22834 24.7981C6.70063 24.4206 7.35832 24.541 7.69726 25.067C8.75463 26.7079 9.97705 28.2177 11.2545 29.581C13.6535 32.141 16.2224 34.1593 18.1985 35.54C19.1847 36.229 20.0186 36.7561 20.6035 37.1094C20.7695 37.2098 20.9154 37.2961 21.0387 37.368C21.1182 37.3192 21.2069 37.2641 21.3045 37.2028C21.7803 36.9039 22.4639 36.459 23.286 35.8798C24.9322 34.7199 27.1225 33.0295 29.3078 30.9049C33.7302 26.6055 37.8947 20.7598 37.8947 14.1099C37.8947 11.0032 36.9637 8.02708 35.4269 5.84867C33.8953 3.6774 31.8036 2.34491 29.4408 2.34491C26.1747 2.34491 23.6415 4.7142 21.9975 8.44377L21.0526 10.5874L20.1078 8.44377C18.4637 4.71397 15.9304 2.34491 12.6644 2.34491C10.3019 2.34491 8.21021 3.67717 6.67853 5.84831ZM21.0526 38.691L20.5957 39.7472L21.0673 40L21.5334 39.734L21.0526 38.691Z" fill="#333333"/>
</svg>
