


<svg width="30" height="31" viewBox="0 0 30 31" fill="none" xmlns="http://www.w3.org/2000/svg">
<path fill-rule="evenodd" clip-rule="evenodd" d="M3 28.7505H21C21.8284 28.7505 22.5 28.0731 22.5 27.2373V3.02637C22.5 2.19066 21.8284 1.51318 21 1.51318H3C2.17157 1.51318 1.5 2.19066 1.5 3.02637V27.2373C1.5 28.0731 2.17157 28.7505 3 28.7505ZM21 30.2637H3C1.34314 30.2637 0 28.9087 0 27.2373V3.02637C0 1.35495 1.34314 0 3 0H21C22.6568 0 24 1.35495 24 3.02637V27.2373C24 28.9087 22.6568 30.2637 21 30.2637Z" fill="#333333"/>
<path fill-rule="evenodd" clip-rule="evenodd" d="M10.5 6.80933C10.5 6.39146 10.8358 6.05273 11.25 6.05273H20.25C20.6642 6.05273 21 6.39146 21 6.80933C21 7.22719 20.6642 7.56592 20.25 7.56592H11.25C10.8358 7.56592 10.5 7.22719 10.5 6.80933Z" fill="#333333"/>
<path fill-rule="evenodd" clip-rule="evenodd" d="M10.5 9.83569C10.5 9.41783 10.8358 9.0791 11.25 9.0791H20.25C20.6642 9.0791 21 9.41783 21 9.83569C21 10.2536 20.6642 10.5923 20.25 10.5923H11.25C10.8358 10.5923 10.5 10.2536 10.5 9.83569Z" fill="#333333"/>
<path fill-rule="evenodd" clip-rule="evenodd" d="M10.5 15.8884C10.5 15.4706 10.8358 15.1318 11.25 15.1318H20.25C20.6642 15.1318 21 15.4706 21 15.8884C21 16.3063 20.6642 16.645 20.25 16.645H11.25C10.8358 16.645 10.5 16.3063 10.5 15.8884Z" fill="#333333"/>
<path fill-rule="evenodd" clip-rule="evenodd" d="M10.5 18.9148C10.5 18.4969 10.8358 18.1582 11.25 18.1582H20.25C20.6642 18.1582 21 18.4969 21 18.9148C21 19.3327 20.6642 19.6714 20.25 19.6714H11.25C10.8358 19.6714 10.5 19.3327 10.5 18.9148Z" fill="#333333"/>
<path fill-rule="evenodd" clip-rule="evenodd" d="M4.5 16.645V18.9148H6.75V16.645H4.5ZM3.75 15.1318H7.5C7.91422 15.1318 8.25 15.4706 8.25 15.8884V19.6714C8.25 20.0893 7.91422 20.428 7.5 20.428H3.75C3.33579 20.428 3 20.0893 3 19.6714V15.8884C3 15.4706 3.33579 15.1318 3.75 15.1318Z" fill="#333333"/>
<path fill-rule="evenodd" clip-rule="evenodd" d="M8.78033 6.27432C9.0732 6.56977 9.0732 7.04884 8.78033 7.34429L5.25 10.9056L3.21967 8.85748C2.92678 8.56203 2.92678 8.08296 3.21967 7.78751C3.51257 7.49206 3.98744 7.49206 4.28033 7.78751L5.25 8.7657L7.71968 6.27432C8.01255 5.97887 8.48745 5.97887 8.78033 6.27432Z" fill="#333333"/>
<path fill-rule="evenodd" clip-rule="evenodd" d="M28.5 15.1318H27V26.7329L27.75 27.7417L28.5 26.7329V15.1318ZM30 27.2373L27.75 30.2637L25.5 27.2373V13.6187H30V27.2373Z" fill="#333333"/>
<path fill-rule="evenodd" clip-rule="evenodd" d="M28.5 9.83569H27V11.3489H28.5V9.83569ZM27 8.32251H28.5C29.3284 8.32251 30 8.99996 30 9.83569V12.8621H25.5V9.83569C25.5 8.99996 26.1716 8.32251 27 8.32251Z" fill="#333333"/>
</svg>

