<svg width="90" height="90" viewBox="0 0 90 90" fill="none" xmlns="http://www.w3.org/2000/svg">
<path fill-rule="evenodd" clip-rule="evenodd" d="M47.8125 71.1V82.5H42.1875V71.1C35.7496 70.4062 29.7953 67.3575 25.469 62.5397C21.1427 57.722 18.7497 51.4752 18.75 45V37.5H24.375V45C24.375 50.4701 26.548 55.7161 30.4159 59.5841C34.2839 63.452 39.5299 65.625 45 65.625C50.4701 65.625 55.7161 63.452 59.5841 59.5841C63.452 55.7161 65.625 50.4701 65.625 45V37.5H71.25V45C71.2503 51.4752 68.8573 57.722 64.531 62.5397C60.2047 67.3575 54.2504 70.4062 47.8125 71.1ZM30 22.5C30 18.5218 31.5804 14.7064 34.3934 11.8934C37.2064 9.08035 41.0218 7.5 45 7.5C48.9782 7.5 52.7936 9.08035 55.6066 11.8934C58.4197 14.7064 60 18.5218 60 22.5V45C60 48.9782 58.4197 52.7936 55.6066 55.6066C52.7936 58.4196 48.9782 60 45 60C41.0218 60 37.2064 58.4196 34.3934 55.6066C31.5804 52.7936 30 48.9782 30 45V22.5Z" fill="#FFBE00"/>
</svg>
