
<svg width="40" height="40" viewBox="0 0 40 40" fill="none" xmlns="http://www.w3.org/2000/svg">
<path fill-rule="evenodd" clip-rule="evenodd" d="M13.8742 7.77147C13.8865 7.71709 13.9013 7.65181 13.9202 7.57163C14.0075 7.19991 14.1512 6.65359 14.447 6.11516C14.7483 5.5667 15.2159 5.01082 15.949 4.64517C16.6796 4.28077 17.5958 4.14423 18.7282 4.29521C19.9781 4.46184 22.4892 4.87527 24.7072 6.00352C26.9385 7.13862 29.0281 9.0905 29.028 12.3423C29.028 14.0222 28.3776 15.8247 27.7487 16.9998C27.4461 17.5653 27.0863 18.105 26.7268 18.3962C26.6444 18.4629 26.5274 18.5457 26.3806 18.6048C25.5503 21.3413 23.0077 23.3333 20 23.3333C17.2223 23.3333 14.8414 21.6345 13.8395 19.2193L13.8191 19.2221L13.5234 18.8631C13.5237 18.8634 13.5234 18.8631 14.1667 18.3333L13.5234 18.8631L13.5223 18.8618L13.5207 18.8598L13.5163 18.8544L13.5024 18.8372C13.4911 18.8229 13.4754 18.8032 13.4559 18.778C13.4169 18.7278 13.3627 18.6562 13.2967 18.5649C13.1649 18.3828 12.9857 18.1213 12.7888 17.7951C12.3972 17.1465 11.9239 16.2232 11.6222 15.1459C11.3202 14.0682 11.1815 12.805 11.4984 11.502C11.807 10.2332 12.534 8.98442 13.8517 7.87008C13.8584 7.84109 13.8657 7.80867 13.8742 7.77147ZM15.2739 18.303C15.9517 20.2607 17.8117 21.6666 20 21.6666C22.4392 21.6666 24.4704 19.92 24.9112 17.6093L25.0047 17.6404C25.0012 17.5913 25 17.5442 25 17.4999C25 16.1198 24.8086 15.1569 24.6298 14.5577C24.5902 14.4247 24.551 14.3092 24.5145 14.2108L24.4797 14.2121L24.4465 14.2132C24.0033 14.226 23.3741 14.2033 22.5868 14.0704C21.1562 13.8288 19.2182 13.2255 16.937 11.8282C16.8871 11.94 16.837 12.0656 16.7874 12.2057C16.6236 12.6685 16.4893 13.2175 16.3732 13.797C16.2707 14.308 16.1863 14.8217 16.1069 15.3044L16.0757 15.4941C15.9903 16.0113 15.9043 16.5179 15.804 16.8858C15.6297 17.5246 15.451 17.9778 15.2739 18.303ZM14.1078 16.7511C13.7931 16.2045 13.4503 15.4929 13.2271 14.6963C12.9783 13.8084 12.8867 12.8462 13.1179 11.8958C13.3428 10.9709 13.8873 9.998 15.0069 9.07675C15.2083 8.94025 15.3002 8.75667 15.3249 8.70725L15.3253 8.70633C15.3782 8.60067 15.4106 8.49392 15.4297 8.42575C15.4565 8.33045 15.4858 8.20151 15.5126 8.08361C15.5231 8.03746 15.5332 7.99301 15.5426 7.95293C15.6215 7.6174 15.7244 7.25142 15.9077 6.91766C16.0857 6.59393 16.3297 6.31774 16.6929 6.1366C17.0585 5.95422 17.6231 5.82928 18.508 5.94726C19.7192 6.10873 21.9964 6.49448 23.9515 7.48903C25.8932 8.47675 27.3614 9.97133 27.3613 12.3423C27.3613 13.4343 26.9942 14.6753 26.5531 15.6553C26.4698 15.0168 26.3502 14.4948 26.2269 14.0813C26.114 13.7026 25.9983 13.4167 25.9057 13.2173C25.8594 13.1178 25.8189 13.0399 25.7875 12.9831C25.7718 12.9547 25.7584 12.9316 25.7477 12.9136L25.7336 12.8905L25.7282 12.8819L25.7259 12.8783L25.7243 12.8759C25.7242 12.8755 25.7239 12.8752 25.0234 13.3266L25.7243 12.8759L25.4159 12.3973L24.8641 12.5086L24.8525 12.5106C24.8379 12.5129 24.8109 12.5169 24.772 12.5215C24.6942 12.5308 24.5685 12.5423 24.3982 12.5472C24.0577 12.5571 23.5379 12.5408 22.8643 12.427C21.5205 12.2001 19.5457 11.5822 17.1467 9.98442L16.5637 9.59608L16.0809 10.1038C15.6832 10.5222 15.4131 11.0935 15.2163 11.6496C15.0143 12.2202 14.8618 12.8568 14.739 13.4693C14.6304 14.0111 14.541 14.5551 14.4621 15.0351L14.4312 15.2226C14.3417 15.765 14.2692 16.1791 14.196 16.4473C14.1659 16.5578 14.1364 16.6588 14.1078 16.7511Z" fill="black"/>
<path fill-rule="evenodd" clip-rule="evenodd" d="M14.9284 24.0458C14.7521 23.6941 14.5344 23.26 14.1667 23.3438C9.66317 24.3693 5 27.3287 5 30.4748V34.9998H35V30.4748C35 27.9967 32.1068 25.6344 28.6772 24.2418C28.676 24.2392 28.6747 24.2366 28.6735 24.2339C28.6697 24.2261 28.6659 24.2183 28.662 24.2105L28.6342 24.2244C27.723 23.857 26.7747 23.5581 25.8333 23.3438C25.4143 23.2483 24.9812 23.825 24.7911 24.1863H21.4042C20.6652 24.1864 20.2882 24.1863 19.9185 24.1863H19.8974C19.5197 24.1863 19.1421 24.1862 18.3866 24.1863H15C14.9767 24.1422 14.953 24.0948 14.9284 24.0458ZM26.1691 25.1465C26.5332 25.2469 26.8958 25.3603 27.2536 25.4853C27.2634 25.7703 27.2419 26.1068 27.1952 26.4498C27.1479 26.7963 27.0777 27.1287 26.9995 27.3968C26.9889 27.4329 26.9784 27.4673 26.968 27.4998H25.8333C25.5177 27.4998 25.2292 27.6782 25.088 27.9605L24.2547 29.6272C24.1968 29.7429 24.1667 29.8705 24.1667 29.9998V31.6665C24.1667 32.1268 24.5397 32.4998 25 32.4998H26.6667V30.8332H25.8333V30.1966L26.3483 29.1665H28.6517L29.1667 30.1966V30.8332H28.3333V32.4998H30C30.4602 32.4998 30.8333 32.1268 30.8333 31.6665V29.9998C30.8333 29.8705 30.8033 29.7429 30.7453 29.6272L29.912 27.9605C29.7708 27.6782 29.4823 27.4998 29.1667 27.4998H28.6947C28.7563 27.2374 28.8081 26.9569 28.8465 26.6749C28.8696 26.5058 28.8883 26.3327 28.9015 26.1594C29.7139 26.5436 30.4695 26.9836 31.1231 27.4605C32.7252 28.6294 33.3333 29.7223 33.3333 30.4748V33.3332H6.66667V30.4748C6.66667 29.7223 7.27477 28.6294 8.87692 27.4605C9.68208 26.873 10.6421 26.3413 11.6726 25.9014C11.6833 26.1595 11.7082 26.4217 11.7427 26.6749C11.7997 27.0923 11.8857 27.5064 11.9897 27.8634L11.9967 27.8868C11.2975 28.3301 10.8333 29.1108 10.8333 29.9998C10.8333 31.3806 11.9526 32.4998 13.3333 32.4998C14.7141 32.4998 15.8333 31.3806 15.8333 29.9998C15.8333 28.7184 14.8693 27.6622 13.6267 27.5169C13.6146 27.4794 13.6022 27.4393 13.5897 27.3968C13.5116 27.1287 13.4413 26.7963 13.3941 26.4498C13.3468 26.1023 13.3252 25.7613 13.3361 25.4738C13.3387 25.4043 13.343 25.3423 13.3485 25.2874C13.4485 25.2566 13.5487 25.2267 13.649 25.1978L13.9939 25.853H18.387C19.1593 25.8528 19.5312 25.8529 19.908 25.853C20.2761 25.853 20.6488 25.8531 21.4042 25.853H25.7972L26.1691 25.1465ZM13.3333 30.8454C13.782 30.8454 14.1667 30.4784 14.1667 29.9998C14.1667 29.5213 13.782 29.1543 13.3333 29.1543C12.8847 29.1543 12.5 29.5213 12.5 29.9998C12.5 30.4784 12.8847 30.8454 13.3333 30.8454Z" fill="black"/>
</svg>